<mxfile host="65bd71144e">
    <diagram name="PÃ¡gina-1" id="oDKx01zZ5vxRKA5znKhv">
        <mxGraphModel dx="1073" dy="916" grid="1" gridSize="10" guides="1" tooltips="1" connect="1" arrows="1" fold="1" page="1" pageScale="1" pageWidth="827" pageHeight="1169" math="0" shadow="0">
            <root>
                <mxCell id="0"/>
                <mxCell id="2" value="Untitled Layer" parent="0"/>
                <mxCell id="3" value="" style="rounded=0;whiteSpace=wrap;html=1;" parent="2" vertex="1">
                    <mxGeometry x="350" y="270" width="120" height="60" as="geometry"/>
                </mxCell>
                <mxCell id="4" value="" style="rounded=0;whiteSpace=wrap;html=1;" parent="2" vertex="1">
                    <mxGeometry x="350" y="270" width="120" height="60" as="geometry"/>
                </mxCell>
                <mxCell id="5" value="" style="rounded=0;whiteSpace=wrap;html=1;" parent="2" vertex="1">
                    <mxGeometry x="350" y="270" width="120" height="60" as="geometry"/>
                </mxCell>
                <mxCell id="6" value="" style="rounded=0;whiteSpace=wrap;html=1;" parent="2" vertex="1">
                    <mxGeometry x="10" y="10" width="740" height="1140" as="geometry"/>
                </mxCell>
                <mxCell id="1" parent="0"/>
                <mxCell id="-gaBI5YNp0DLK8B5nc4l-1" value="&amp;lt;&amp;lt;component&amp;gt;&amp;gt;&lt;div&gt;&amp;lt;&amp;lt;container (C4)&amp;gt;&amp;gt;&lt;/div&gt;&lt;div&gt;UI&lt;/div&gt;&lt;div&gt;&lt;br&gt;&lt;/div&gt;&lt;div&gt;&lt;br&gt;&lt;/div&gt;&lt;div&gt;&lt;br&gt;&lt;/div&gt;&lt;div&gt;&lt;br&gt;&lt;/div&gt;&lt;div&gt;&lt;br&gt;&lt;/div&gt;&lt;div&gt;&lt;br&gt;&lt;/div&gt;&lt;div&gt;&lt;br&gt;&lt;/div&gt;&lt;div&gt;&lt;br&gt;&lt;/div&gt;&lt;div&gt;&lt;br&gt;&lt;/div&gt;&lt;div&gt;&lt;br&gt;&lt;/div&gt;&lt;div&gt;&lt;br&gt;&lt;/div&gt;&lt;div&gt;&lt;br&gt;&lt;/div&gt;&lt;div&gt;&lt;br&gt;&lt;/div&gt;&lt;div&gt;&lt;br&gt;&lt;/div&gt;&lt;div&gt;&lt;br&gt;&lt;/div&gt;&lt;div&gt;&lt;br&gt;&lt;/div&gt;&lt;div&gt;&lt;br&gt;&lt;/div&gt;&lt;div&gt;&lt;br&gt;&lt;/div&gt;&lt;div&gt;&lt;br&gt;&lt;/div&gt;&lt;div&gt;&lt;br&gt;&lt;/div&gt;&lt;div&gt;&lt;br&gt;&lt;/div&gt;&lt;div&gt;&lt;br&gt;&lt;/div&gt;&lt;div&gt;&lt;br&gt;&lt;/div&gt;&lt;div&gt;&lt;br&gt;&lt;/div&gt;&lt;div&gt;&lt;br&gt;&lt;/div&gt;&lt;div&gt;&lt;br&gt;&lt;/div&gt;&lt;div&gt;&lt;br&gt;&lt;/div&gt;&lt;div&gt;&lt;br&gt;&lt;/div&gt;&lt;div&gt;&lt;br&gt;&lt;/div&gt;&lt;div&gt;&lt;br&gt;&lt;/div&gt;&lt;div&gt;&lt;br&gt;&lt;/div&gt;&lt;div&gt;&lt;br&gt;&lt;/div&gt;&lt;div&gt;&lt;br&gt;&lt;/div&gt;&lt;div&gt;&lt;br&gt;&lt;/div&gt;&lt;div&gt;&lt;br&gt;&lt;/div&gt;&lt;div&gt;&lt;br&gt;&lt;/div&gt;&lt;div&gt;&lt;br&gt;&lt;/div&gt;&lt;div&gt;&lt;br&gt;&lt;/div&gt;&lt;div&gt;&lt;br&gt;&lt;/div&gt;&lt;div&gt;&lt;br&gt;&lt;/div&gt;&lt;div&gt;&lt;br&gt;&lt;/div&gt;&lt;div&gt;&lt;br&gt;&lt;/div&gt;&lt;div&gt;&lt;br&gt;&lt;/div&gt;&lt;div&gt;&lt;br&gt;&lt;/div&gt;&lt;div&gt;&lt;br&gt;&lt;/div&gt;&lt;div&gt;&lt;br&gt;&lt;/div&gt;&lt;div&gt;&lt;br&gt;&lt;/div&gt;&lt;div&gt;&lt;br&gt;&lt;/div&gt;&lt;div&gt;&lt;br&gt;&lt;/div&gt;&lt;div&gt;&lt;br&gt;&lt;/div&gt;&lt;div&gt;&lt;br&gt;&lt;/div&gt;&lt;div&gt;&lt;br&gt;&lt;/div&gt;&lt;div&gt;&lt;br&gt;&lt;/div&gt;&lt;div&gt;&lt;br&gt;&lt;/div&gt;&lt;div&gt;&lt;br&gt;&lt;/div&gt;&lt;div&gt;&lt;br&gt;&lt;/div&gt;&lt;div&gt;&lt;br&gt;&lt;/div&gt;&lt;div&gt;&lt;br&gt;&lt;/div&gt;&lt;div&gt;&lt;br&gt;&lt;/div&gt;&lt;div&gt;&lt;br&gt;&lt;/div&gt;&lt;div&gt;&lt;br&gt;&lt;/div&gt;&lt;div&gt;&lt;br&gt;&lt;/div&gt;" style="html=1;dropTarget=0;whiteSpace=wrap;" parent="1" vertex="1">
                    <mxGeometry x="40" y="150" width="650" height="970" as="geometry"/>
                </mxCell>
                <mxCell id="-gaBI5YNp0DLK8B5nc4l-2" value="" style="shape=module;jettyWidth=8;jettyHeight=4;" parent="-gaBI5YNp0DLK8B5nc4l-1" vertex="1">
                    <mxGeometry x="1" width="20" height="20" relative="1" as="geometry">
                        <mxPoint x="-27" y="7" as="offset"/>
                    </mxGeometry>
                </mxCell>
                <mxCell id="-gaBI5YNp0DLK8B5nc4l-3" value="Frameworks and Drives Layer&lt;br&gt;&lt;br&gt;&lt;br&gt;&lt;div&gt;&lt;br&gt;&lt;/div&gt;&lt;div&gt;&lt;br&gt;&lt;/div&gt;&lt;div&gt;&lt;br&gt;&lt;/div&gt;&lt;div&gt;&lt;br&gt;&lt;/div&gt;" style="shape=folder;fontStyle=1;tabWidth=80;tabHeight=30;tabPosition=left;html=1;boundedLbl=1;whiteSpace=wrap;fillColor=#dae8fc;strokeColor=#6c8ebf;" parent="1" vertex="1">
                    <mxGeometry x="70" y="200" width="570" height="150" as="geometry"/>
                </mxCell>
                <mxCell id="-gaBI5YNp0DLK8B5nc4l-4" value="Interface Adapters Layer&lt;div&gt;&lt;br&gt;&lt;/div&gt;&lt;div&gt;&lt;br&gt;&lt;/div&gt;&lt;div&gt;&lt;br&gt;&lt;/div&gt;&lt;div&gt;&lt;br&gt;&lt;/div&gt;&lt;div&gt;&lt;br&gt;&lt;/div&gt;" style="shape=folder;fontStyle=1;tabWidth=80;tabHeight=30;tabPosition=left;html=1;boundedLbl=1;whiteSpace=wrap;fillColor=#d5e8d4;strokeColor=#82b366;" parent="1" vertex="1">
                    <mxGeometry x="70" y="490" width="570" height="150" as="geometry"/>
                </mxCell>
                <mxCell id="-gaBI5YNp0DLK8B5nc4l-5" value="Application Business Rules&lt;div&gt;&lt;br&gt;&lt;/div&gt;&lt;div&gt;&lt;br&gt;&lt;/div&gt;&lt;div&gt;&lt;br&gt;&lt;/div&gt;&lt;div&gt;&lt;br&gt;&lt;/div&gt;&lt;div&gt;&lt;br&gt;&lt;/div&gt;" style="shape=folder;fontStyle=1;tabWidth=80;tabHeight=30;tabPosition=left;html=1;boundedLbl=1;whiteSpace=wrap;fillColor=#e1d5e7;strokeColor=#9673a6;" parent="1" vertex="1">
                    <mxGeometry x="70" y="730" width="570" height="150" as="geometry"/>
                </mxCell>
                <mxCell id="-gaBI5YNp0DLK8B5nc4l-6" value="Application Business Rules&lt;div&gt;&lt;br&gt;&lt;/div&gt;&lt;div&gt;&lt;br&gt;&lt;/div&gt;&lt;div&gt;&lt;br&gt;&lt;/div&gt;&lt;div&gt;&lt;br&gt;&lt;/div&gt;&lt;div&gt;&lt;br&gt;&lt;/div&gt;" style="shape=folder;fontStyle=1;tabWidth=80;tabHeight=30;tabPosition=left;html=1;boundedLbl=1;whiteSpace=wrap;fillColor=#ffe6cc;strokeColor=#d79b00;" parent="1" vertex="1">
                    <mxGeometry x="70" y="950" width="570" height="150" as="geometry"/>
                </mxCell>
                <mxCell id="37" style="edgeStyle=none;html=1;endArrow=none;endFill=0;endSize=12;" edge="1" parent="1" source="-gaBI5YNp0DLK8B5nc4l-7">
                    <mxGeometry relative="1" as="geometry">
                        <mxPoint x="509" y="418" as="targetPoint"/>
                        <Array as="points">
                            <mxPoint x="170" y="418"/>
                        </Array>
                    </mxGeometry>
                </mxCell>
                <mxCell id="-gaBI5YNp0DLK8B5nc4l-7" value="&amp;lt;&amp;lt;component&amp;gt;&amp;gt;&lt;div&gt;Routing&lt;/div&gt;" style="html=1;dropTarget=0;whiteSpace=wrap;" parent="1" vertex="1">
                    <mxGeometry x="100" y="260" width="140" height="70" as="geometry"/>
                </mxCell>
                <mxCell id="-gaBI5YNp0DLK8B5nc4l-8" value="" style="shape=module;jettyWidth=8;jettyHeight=4;" parent="-gaBI5YNp0DLK8B5nc4l-7" vertex="1">
                    <mxGeometry x="1" width="20" height="20" relative="1" as="geometry">
                        <mxPoint x="-27" y="7" as="offset"/>
                    </mxGeometry>
                </mxCell>
                <mxCell id="19" style="edgeStyle=none;html=1;entryX=0.5;entryY=0;entryDx=0;entryDy=0;endArrow=none;endFill=0;endSize=5;" edge="1" parent="1" source="-gaBI5YNp0DLK8B5nc4l-9" target="17">
                    <mxGeometry relative="1" as="geometry"/>
                </mxCell>
                <mxCell id="20" value="Module API" style="edgeStyle=none;html=1;endArrow=oval;endFill=0;endSize=14;exitX=1;exitY=0.5;exitDx=0;exitDy=0;" edge="1" parent="1" source="-gaBI5YNp0DLK8B5nc4l-9">
                    <mxGeometry x="0.8519" relative="1" as="geometry">
                        <mxPoint x="520" y="420" as="targetPoint"/>
                        <Array as="points">
                            <mxPoint x="520" y="595"/>
                            <mxPoint x="520" y="510"/>
                        </Array>
                        <mxPoint as="offset"/>
                    </mxGeometry>
                </mxCell>
                <mxCell id="-gaBI5YNp0DLK8B5nc4l-9" value="&amp;lt;&amp;lt;component&amp;gt;&amp;gt;&lt;div&gt;Module&lt;/div&gt;" style="html=1;dropTarget=0;whiteSpace=wrap;" parent="1" vertex="1">
                    <mxGeometry x="285" y="560" width="140" height="70" as="geometry"/>
                </mxCell>
                <mxCell id="-gaBI5YNp0DLK8B5nc4l-10" value="" style="shape=module;jettyWidth=8;jettyHeight=4;" parent="-gaBI5YNp0DLK8B5nc4l-9" vertex="1">
                    <mxGeometry x="1" width="20" height="20" relative="1" as="geometry">
                        <mxPoint x="-27" y="7" as="offset"/>
                    </mxGeometry>
                </mxCell>
                <mxCell id="-gaBI5YNp0DLK8B5nc4l-64" style="edgeStyle=orthogonalEdgeStyle;rounded=0;orthogonalLoop=1;jettySize=auto;html=1;endArrow=halfCircle;endFill=0;exitX=0.571;exitY=0.992;exitDx=0;exitDy=0;exitPerimeter=0;endSize=8;" parent="1" source="-gaBI5YNp0DLK8B5nc4l-11" edge="1">
                    <mxGeometry relative="1" as="geometry">
                        <Array as="points"/>
                        <mxPoint x="365" y="910" as="targetPoint"/>
                    </mxGeometry>
                </mxCell>
                <mxCell id="18" value="App Services API" style="edgeStyle=none;html=1;entryX=0.5;entryY=1;entryDx=0;entryDy=0;endArrow=none;endFill=0;endSize=5;exitX=1;exitY=0.5;exitDx=0;exitDy=0;" edge="1" parent="1" source="-gaBI5YNp0DLK8B5nc4l-11" target="17">
                    <mxGeometry x="0.8739" relative="1" as="geometry">
                        <Array as="points">
                            <mxPoint x="500" y="835"/>
                            <mxPoint x="500" y="740"/>
                            <mxPoint x="355" y="740"/>
                        </Array>
                        <mxPoint as="offset"/>
                    </mxGeometry>
                </mxCell>
                <mxCell id="24" style="edgeStyle=none;html=1;exitX=0;exitY=0.5;exitDx=0;exitDy=0;endArrow=halfCircle;endFill=0;endSize=7;" edge="1" parent="1" source="-gaBI5YNp0DLK8B5nc4l-11">
                    <mxGeometry relative="1" as="geometry">
                        <mxPoint x="355" y="470" as="targetPoint"/>
                        <Array as="points">
                            <mxPoint x="180" y="835"/>
                            <mxPoint x="180" y="670"/>
                            <mxPoint x="50" y="670"/>
                            <mxPoint x="50" y="470"/>
                            <mxPoint x="200" y="470"/>
                            <mxPoint x="200" y="500"/>
                            <mxPoint x="280" y="500"/>
                            <mxPoint x="355" y="500"/>
                        </Array>
                    </mxGeometry>
                </mxCell>
                <mxCell id="-gaBI5YNp0DLK8B5nc4l-11" value="&amp;lt;&amp;lt;component&amp;gt;&amp;gt;&lt;div&gt;Application Service&lt;/div&gt;" style="html=1;dropTarget=0;whiteSpace=wrap;" parent="1" vertex="1">
                    <mxGeometry x="285" y="800" width="140" height="70" as="geometry"/>
                </mxCell>
                <mxCell id="-gaBI5YNp0DLK8B5nc4l-12" value="" style="shape=module;jettyWidth=8;jettyHeight=4;" parent="-gaBI5YNp0DLK8B5nc4l-11" vertex="1">
                    <mxGeometry x="1" width="20" height="20" relative="1" as="geometry">
                        <mxPoint x="-27" y="7" as="offset"/>
                    </mxGeometry>
                </mxCell>
                <mxCell id="14" value="Model API" style="edgeStyle=none;html=1;endArrow=circle;endFill=0;endSize=6;exitX=1;exitY=0.5;exitDx=0;exitDy=0;" edge="1" parent="1" source="-gaBI5YNp0DLK8B5nc4l-13">
                    <mxGeometry x="0.8421" relative="1" as="geometry">
                        <mxPoint x="365" y="903" as="targetPoint"/>
                        <Array as="points">
                            <mxPoint x="490" y="1055"/>
                            <mxPoint x="490" y="940"/>
                            <mxPoint x="365" y="940"/>
                        </Array>
                        <mxPoint as="offset"/>
                    </mxGeometry>
                </mxCell>
                <mxCell id="-gaBI5YNp0DLK8B5nc4l-13" value="&amp;lt;&amp;lt;component&amp;gt;&amp;gt;&lt;div&gt;Domain Model (DDD)&lt;/div&gt;" style="html=1;dropTarget=0;whiteSpace=wrap;" parent="1" vertex="1">
                    <mxGeometry x="285" y="1020" width="140" height="70" as="geometry"/>
                </mxCell>
                <mxCell id="-gaBI5YNp0DLK8B5nc4l-14" value="" style="shape=module;jettyWidth=8;jettyHeight=4;" parent="-gaBI5YNp0DLK8B5nc4l-13" vertex="1">
                    <mxGeometry x="1" width="20" height="20" relative="1" as="geometry">
                        <mxPoint x="-27" y="7" as="offset"/>
                    </mxGeometry>
                </mxCell>
                <mxCell id="21" style="edgeStyle=none;html=1;endArrow=halfCircle;endFill=0;endSize=9;exitX=0.217;exitY=1.015;exitDx=0;exitDy=0;exitPerimeter=0;" edge="1" parent="1" source="-gaBI5YNp0DLK8B5nc4l-21">
                    <mxGeometry relative="1" as="geometry">
                        <mxPoint x="520" y="420" as="targetPoint"/>
                        <Array as="points">
                            <mxPoint x="500" y="400"/>
                            <mxPoint x="510" y="410"/>
                        </Array>
                    </mxGeometry>
                </mxCell>
                <mxCell id="28" style="edgeStyle=none;html=1;endArrow=none;endFill=0;endSize=12;exitX=0.857;exitY=-0.021;exitDx=0;exitDy=0;exitPerimeter=0;" edge="1" parent="1" source="-gaBI5YNp0DLK8B5nc4l-21" target="25">
                    <mxGeometry relative="1" as="geometry">
                        <Array as="points">
                            <mxPoint x="590" y="220"/>
                            <mxPoint x="620" y="220"/>
                        </Array>
                    </mxGeometry>
                </mxCell>
                <mxCell id="-gaBI5YNp0DLK8B5nc4l-21" value="&amp;lt;&amp;lt;component&amp;gt;&amp;gt;&lt;div&gt;Component&lt;/div&gt;" style="html=1;dropTarget=0;whiteSpace=wrap;" parent="1" vertex="1">
                    <mxGeometry x="470" y="260" width="140" height="70" as="geometry"/>
                </mxCell>
                <mxCell id="-gaBI5YNp0DLK8B5nc4l-22" value="" style="shape=module;jettyWidth=8;jettyHeight=4;" parent="-gaBI5YNp0DLK8B5nc4l-21" vertex="1">
                    <mxGeometry x="1" width="20" height="20" relative="1" as="geometry">
                        <mxPoint x="-27" y="7" as="offset"/>
                    </mxGeometry>
                </mxCell>
                <mxCell id="-gaBI5YNp0DLK8B5nc4l-24" value="" style="ellipse;whiteSpace=wrap;html=1;align=center;aspect=fixed;fillColor=none;strokeColor=none;resizable=0;perimeter=centerPerimeter;rotatable=0;allowArrows=0;points=[];outlineConnect=1;" parent="1" vertex="1">
                    <mxGeometry x="150" y="410" width="10" height="10" as="geometry"/>
                </mxCell>
                <mxCell id="-gaBI5YNp0DLK8B5nc4l-42" value="" style="ellipse;whiteSpace=wrap;html=1;align=center;aspect=fixed;fillColor=none;strokeColor=none;resizable=0;perimeter=centerPerimeter;rotatable=0;allowArrows=0;points=[];outlineConnect=1;" parent="1" vertex="1">
                    <mxGeometry x="360" y="970" width="10" height="10" as="geometry"/>
                </mxCell>
                <mxCell id="-gaBI5YNp0DLK8B5nc4l-92" style="edgeStyle=orthogonalEdgeStyle;rounded=0;orthogonalLoop=1;jettySize=auto;html=1;endArrow=none;endFill=0;" parent="1" source="-gaBI5YNp0DLK8B5nc4l-88" target="-gaBI5YNp0DLK8B5nc4l-91" edge="1">
                    <mxGeometry relative="1" as="geometry"/>
                </mxCell>
                <mxCell id="-gaBI5YNp0DLK8B5nc4l-94" value="UI API" style="edgeLabel;html=1;align=center;verticalAlign=middle;resizable=0;points=[];" parent="-gaBI5YNp0DLK8B5nc4l-92" vertex="1" connectable="0">
                    <mxGeometry x="-0.8022" y="-1" relative="1" as="geometry">
                        <mxPoint x="1" y="31" as="offset"/>
                    </mxGeometry>
                </mxCell>
                <mxCell id="-gaBI5YNp0DLK8B5nc4l-88" value="" style="ellipse;whiteSpace=wrap;html=1;aspect=fixed;" parent="1" vertex="1">
                    <mxGeometry x="150" y="20" width="30" height="30" as="geometry"/>
                </mxCell>
                <mxCell id="-gaBI5YNp0DLK8B5nc4l-91" value="" style="verticalLabelPosition=bottom;verticalAlign=top;html=1;shape=mxgraph.basic.rect;fillColor2=none;strokeWidth=1;size=20;indent=5;" parent="1" vertex="1">
                    <mxGeometry x="155" y="140" width="20" height="20" as="geometry"/>
                </mxCell>
                <mxCell id="-gaBI5YNp0DLK8B5nc4l-93" style="edgeStyle=orthogonalEdgeStyle;rounded=0;orthogonalLoop=1;jettySize=auto;html=1;entryX=0.467;entryY=0.006;entryDx=0;entryDy=0;entryPerimeter=0;endArrow=none;endFill=0;" parent="1" source="-gaBI5YNp0DLK8B5nc4l-91" target="-gaBI5YNp0DLK8B5nc4l-7" edge="1">
                    <mxGeometry relative="1" as="geometry"/>
                </mxCell>
                <mxCell id="23" value="Http API" style="edgeStyle=none;html=1;endArrow=oval;endFill=0;endSize=12;" edge="1" parent="1" source="11">
                    <mxGeometry x="0.7143" relative="1" as="geometry">
                        <mxPoint x="355" y="470" as="targetPoint"/>
                        <mxPoint as="offset"/>
                    </mxGeometry>
                </mxCell>
                <mxCell id="27" style="edgeStyle=none;html=1;entryX=0.517;entryY=1;entryDx=0;entryDy=0;entryPerimeter=0;endArrow=none;endFill=0;endSize=12;exitX=1;exitY=0.5;exitDx=0;exitDy=0;" edge="1" parent="1" source="11" target="26">
                    <mxGeometry relative="1" as="geometry">
                        <Array as="points">
                            <mxPoint x="450" y="295"/>
                            <mxPoint x="450" y="200"/>
                            <mxPoint x="475" y="200"/>
                        </Array>
                    </mxGeometry>
                </mxCell>
                <mxCell id="11" value="&amp;lt;&amp;lt;component&amp;gt;&amp;gt;&lt;div&gt;Http&lt;/div&gt;" style="html=1;dropTarget=0;whiteSpace=wrap;" vertex="1" parent="1">
                    <mxGeometry x="285" y="260" width="140" height="70" as="geometry"/>
                </mxCell>
                <mxCell id="12" value="" style="shape=module;jettyWidth=8;jettyHeight=4;" vertex="1" parent="11">
                    <mxGeometry x="1" width="20" height="20" relative="1" as="geometry">
                        <mxPoint x="-27" y="7" as="offset"/>
                    </mxGeometry>
                </mxCell>
                <mxCell id="17" value="" style="ellipse;whiteSpace=wrap;html=1;aspect=fixed;" vertex="1" parent="1">
                    <mxGeometry x="341.88" y="681.88" width="26.25" height="26.25" as="geometry"/>
                </mxCell>
                <mxCell id="16" value="" style="ellipse;whiteSpace=wrap;html=1;aspect=fixed;" vertex="1" parent="1">
                    <mxGeometry x="345" y="685" width="20" height="20" as="geometry"/>
                </mxCell>
                <mxCell id="25" value="" style="verticalLabelPosition=bottom;verticalAlign=top;html=1;shape=mxgraph.basic.rect;fillColor2=none;strokeWidth=1;size=20;indent=5;" vertex="1" parent="1">
                    <mxGeometry x="610" y="140" width="20" height="20" as="geometry"/>
                </mxCell>
                <mxCell id="29" style="edgeStyle=none;html=1;endArrow=halfCircle;endFill=0;endSize=12;" edge="1" parent="1" source="26">
                    <mxGeometry relative="1" as="geometry">
                        <mxPoint x="475" y="80" as="targetPoint"/>
                    </mxGeometry>
                </mxCell>
                <mxCell id="26" value="" style="verticalLabelPosition=bottom;verticalAlign=top;html=1;shape=mxgraph.basic.rect;fillColor2=none;strokeWidth=1;size=20;indent=5;" vertex="1" parent="1">
                    <mxGeometry x="465" y="140" width="20" height="20" as="geometry"/>
                </mxCell>
                <mxCell id="30" style="edgeStyle=none;html=1;entryX=0.662;entryY=0.061;entryDx=0;entryDy=0;entryPerimeter=0;endArrow=halfCircle;endFill=0;endSize=12;" edge="1" parent="1">
                    <mxGeometry relative="1" as="geometry">
                        <mxPoint x="619.7329690604599" y="140" as="sourcePoint"/>
                        <mxPoint x="619.6300000000001" y="79.53999999999996" as="targetPoint"/>
                    </mxGeometry>
                </mxCell>
                <mxCell id="31" value="" style="ellipse;whiteSpace=wrap;html=1;aspect=fixed;" vertex="1" parent="1">
                    <mxGeometry x="465" y="68" width="20" height="20" as="geometry"/>
                </mxCell>
                <mxCell id="34" value="" style="ellipse;whiteSpace=wrap;html=1;aspect=fixed;" vertex="1" parent="1">
                    <mxGeometry x="610" y="68" width="20" height="20" as="geometry"/>
                </mxCell>
                <mxCell id="35" value="MDR API" style="text;html=1;align=center;verticalAlign=middle;resizable=0;points=[];autosize=1;strokeColor=none;fillColor=none;" vertex="1" parent="1">
                    <mxGeometry x="440" y="30" width="70" height="30" as="geometry"/>
                </mxCell>
                <mxCell id="36" value="Google OAuth2.0 API" style="text;html=1;align=center;verticalAlign=middle;resizable=0;points=[];autosize=1;strokeColor=none;fillColor=none;" vertex="1" parent="1">
                    <mxGeometry x="550" y="30" width="140" height="30" as="geometry"/>
                </mxCell>
            </root>
        </mxGraphModel>
    </diagram>
</mxfile>